<svg width="24" height="24" viewBox="0 0 24 24" fill="none" xmlns="http://www.w3.org/2000/svg">
<path d="M11 4L3 9H8.49219C8.47159 9.0755 8.43837 9.14412 8.42188 9.22266C8.37587 9.46466 8.33984 9.73081 8.33984 10.0078C8.33984 13.5788 11.9902 13.1758 11.9902 13.1758V14.0859C11.9902 14.4549 12.4742 14.3272 12.5312 15.0762C12.2893 15.0762 7.47461 14.9375 7.47461 18.1855C7.47461 21.4455 11.7246 21.2852 11.7246 21.2852C11.7246 21.2852 16.6328 21.5047 16.6328 17.4727C16.6348 15.0637 13.8223 14.2795 13.8223 13.3125C13.8223 12.3335 15.9414 12.0459 15.9414 9.75391C15.9414 8.75191 15.8728 8.03825 15.4238 7.53125C15.3888 7.49625 15.366 7.47222 15.332 7.44922C15.3243 7.44202 15.3145 7.43678 15.3066 7.42969H15.4297L17.5 5.87695V8C17.4994 8.03874 17.5034 8.07741 17.5117 8.11523C17.3547 8.20306 17.2244 8.3316 17.1343 8.48731C17.0442 8.64302 16.9978 8.82014 17 9V10C16.9981 10.1325 17.0226 10.2641 17.072 10.387C17.1214 10.51 17.1948 10.6219 17.2878 10.7163C17.3809 10.8107 17.4918 10.8856 17.614 10.9368C17.7363 10.9879 17.8675 11.0142 18 11.0142C18.1325 11.0142 18.2637 10.9879 18.386 10.9368C18.5082 10.8856 18.6191 10.8107 18.7122 10.7163C18.8052 10.6219 18.8786 10.51 18.928 10.387C18.9774 10.2641 19.0019 10.1325 19 10V9C19.0022 8.82014 18.9558 8.64302 18.8657 8.48731C18.7756 8.3316 18.6453 8.20306 18.4883 8.11523C18.4966 8.07741 18.5006 8.03874 18.5 8V5.125L20 4H11ZM11.6914 7.05273C11.9792 7.0397 12.2689 7.10963 12.5449 7.26562C12.7519 7.36963 12.9461 7.51813 13.1191 7.70312C13.4761 8.06012 13.7765 8.57845 13.9375 9.18945C14.3175 10.6405 13.8238 12.0358 12.7988 12.3008C11.7848 12.5878 10.6547 11.6412 10.2637 10.2012C10.0907 9.49917 10.1145 8.8203 10.3105 8.2793C10.3124 8.27232 10.3164 8.2667 10.3184 8.25977C10.3217 8.25811 10.3268 8.25354 10.3301 8.25195C10.3863 8.03806 10.4781 7.84617 10.5898 7.6875C10.7954 7.38722 11.0665 7.18384 11.4043 7.09375C11.4993 7.07075 11.5955 7.05708 11.6914 7.05273ZM12.082 15.6855C13.775 15.5585 15.2163 16.4908 15.3203 17.7578C15.3903 19.0138 14.0878 20.1311 12.3828 20.2461C10.6898 20.3611 9.22748 19.4415 9.14648 18.1855C9.06548 16.9185 10.377 15.8125 12.082 15.6855Z" fill="#98A2B3"/>
</svg>
