<svg width="76" height="90" viewBox="0 0 76 90" fill="none" xmlns="http://www.w3.org/2000/svg">
  <path d="M3.04134 0H57.1527L76 18.6987V22.9676H69.9135V21.1992L54.6337 6.03854H6.08524V83.9615H69.9135V67.6448H76V90H0V0H3.04134Z" fill="#83D3DB" />
  <path fill-rule="evenodd" clip-rule="evenodd" d="M55.8914 3.02026L72.9562 19.9493H55.8914V3.02026Z" fill="#83D3DB" />
  <path d="M58.0431 0.884846L75.9985 18.6987V22.9676H52.8484V0H57.1512L58.0431 0.884846ZM65.6104 16.9303L58.9349 10.3074V16.9303H65.6104Z" fill="#83D3DB" />
  <path d="M25.5155 62.4707H18.8516L31.0002 31.9559C31.6495 30.3288 32.5632 29.1843 33.7425 28.5235C34.9219 27.8628 36.4336 27.5317 38.2789 27.5317C40.0896 27.5317 41.5846 27.8628 42.7639 28.5235C43.9432 29.1843 44.8402 30.3288 45.4549 31.9559L57.1416 62.4707H50.4262L39.9176 34.8549C39.6096 34.0744 39.0463 33.6849 38.225 33.6849C37.405 33.6849 36.825 34.0744 36.4823 34.8549L25.513 62.4707H25.5155Z" fill="#2C3C54" />
  <path d="M75.9621 28.1426V62.4704H69.9141V28.1426H75.9621Z" fill="#2C3C54" />
</svg>
  