<svg width="320" height="159" viewBox="0 0 320 159" fill="none" xmlns="http://www.w3.org/2000/svg">
<path d="M5.6881 0.75H106.891L142.14 33.4727V40.9432H130.757V37.8485L102.179 11.3174H11.381V147.683H130.757V119.128H142.14V158.25H0V0.75H5.6881Z" fill="#83D3DB"/>
<path fill-rule="evenodd" clip-rule="evenodd" d="M104.534 6.03491L136.45 35.6607H104.534V6.03491Z" fill="#83D3DB"/>
<path d="M108.556 2.29848L142.138 33.4727V40.9432H98.8408V0.75H106.888L108.554 2.29848H108.556ZM122.709 30.378L110.224 18.788V30.378H122.709Z" fill="#83D3DB"/>
<path d="M47.7225 110.074H35.2591L57.9803 56.673C59.1947 53.8256 60.9035 51.8226 63.1092 50.6663C65.3148 49.51 68.1421 48.9307 71.5933 48.9307C74.9798 48.9307 77.7758 49.51 79.9815 50.6663C82.1871 51.8226 83.8647 53.8256 85.0143 56.673L106.872 110.074H94.3121L74.6582 61.7462C74.0821 60.3804 73.0285 59.6986 71.4925 59.6986C69.9589 59.6986 68.8741 60.3804 68.2333 61.7462L47.7177 110.074H47.7225Z" fill="#2C3C54"/>
<path d="M142.066 50V110.074H130.754V50H142.066Z" fill="#2C3C54"/>
<path d="M200.833 50C210.357 50 217.595 52.462 222.549 57.3858C227.502 62.312 229.979 69.876 229.979 80.0825C229.979 90.2289 227.502 97.764 222.549 102.688C217.595 107.614 210.357 110.076 200.833 110.076H178.016C174.437 110.076 172.647 108.445 172.647 105.181V54.8949C172.647 51.6309 174.437 50 178.016 50H200.833ZM183.961 98.5059C183.961 99.2166 184.376 99.5731 185.206 99.5731H200.833C207.097 99.5731 211.636 98.0314 214.446 94.9456C217.259 91.8598 218.665 86.8757 218.665 79.9934C218.665 73.1111 217.276 68.1426 214.494 65.0858C211.715 62.029 207.16 60.5028 200.831 60.5028H185.204C184.374 60.5028 183.958 60.8571 183.958 61.57V98.5059H183.961Z" fill="#2C3C54"/>
<path d="M260.851 110.074H248.388L271.109 56.673C272.323 53.8256 274.032 51.8226 276.238 50.6663C278.443 49.51 281.27 48.9307 284.722 48.9307C288.108 48.9307 290.904 49.51 293.11 50.6663C295.316 51.8226 296.993 53.8256 298.143 56.673L320 110.074H307.441L287.787 61.7462C287.211 60.3804 286.157 59.6986 284.621 59.6986C283.087 59.6986 282 60.3804 281.362 61.7462L260.846 110.074H260.851Z" fill="#2C3C54"/>
</svg>
